<svg width="75" height="50" viewBox="0 0 75 50" fill="none" xmlns="http://www.w3.org/2000/svg">
<path d="M43 29.5V27.5C43 26.4391 42.5786 25.4217 41.8284 24.6716C41.0783 23.9214 40.0609 23.5 39 23.5H31C29.9391 23.5 28.9217 23.9214 28.1716 24.6716C27.4214 25.4217 27 26.4391 27 27.5V29.5M49 29.5V27.5C48.9993 26.6137 48.7044 25.7528 48.1614 25.0523C47.6184 24.3519 46.8581 23.8516 46 23.63M42 11.63C42.8604 11.8503 43.623 12.3507 44.1676 13.0523C44.7122 13.7539 45.0078 14.6168 45.0078 15.505C45.0078 16.3932 44.7122 17.2561 44.1676 17.9577C43.623 18.6593 42.8604 19.1597 42 19.38M39 15.5C39 17.7091 37.2091 19.5 35 19.5C32.7909 19.5 31 17.7091 31 15.5C31 13.2909 32.7909 11.5 35 11.5C37.2091 11.5 39 13.2909 39 15.5Z" stroke="#3C3C43" stroke-opacity="0.6" stroke-width="2" stroke-linecap="round" stroke-linejoin="round" />
<path d="M19.2404 46.1709C17.2824 46.1709 16.0617 44.7549 16.0617 42.4844V42.4746C16.0617 40.1992 17.2775 38.7832 19.2355 38.7832C20.7882 38.7832 21.9796 39.7646 22.1652 41.166L22.1603 41.1904H21.0763V41.1758C20.8713 40.3115 20.1632 39.75 19.2355 39.75C17.9709 39.75 17.1798 40.7998 17.1798 42.4746V42.4844C17.1798 44.1543 17.9709 45.2041 19.2404 45.2041C20.173 45.2041 20.8713 44.7061 21.0714 43.9102L21.0812 43.8906H22.1652V43.9199C21.9601 45.2725 20.8127 46.1709 19.2404 46.1709ZM24.6986 46.0879C23.6879 46.0879 22.9408 45.4727 22.9408 44.5107V44.501C22.9408 43.5537 23.6537 43.002 24.9184 42.9238L26.3539 42.8408V42.3721C26.3539 41.791 25.9877 41.4688 25.2699 41.4688C24.684 41.4688 24.2982 41.6836 24.1713 42.0596L24.1664 42.0791H23.1459L23.1508 42.0449C23.2777 41.1758 24.1127 40.5947 25.3188 40.5947C26.6518 40.5947 27.4037 41.2588 27.4037 42.3721V46H26.3539V45.248H26.2709C25.9584 45.7852 25.4018 46.0879 24.6986 46.0879ZM23.9955 44.4668C23.9955 44.9551 24.4105 45.2432 24.9818 45.2432C25.7729 45.2432 26.3539 44.7256 26.3539 44.042V43.5879L25.06 43.6709C24.3275 43.7148 23.9955 43.9785 23.9955 44.457V44.4668ZM28.6579 46V40.6973H29.7174V41.498H29.7955C29.986 40.9365 30.4791 40.6045 31.1871 40.6045C31.358 40.6045 31.5436 40.6289 31.651 40.6533V41.6299C31.4606 41.5908 31.2799 41.5664 31.0797 41.5664C30.2692 41.5664 29.7174 42.0645 29.7174 42.8311V46H28.6579ZM34.5116 46.1025C32.9589 46.1025 32.0214 45.043 32.0214 43.3633V43.3584C32.0214 41.7031 32.9784 40.5947 34.4579 40.5947C35.9374 40.5947 36.8456 41.6641 36.8456 43.2559V43.627H33.0858C33.1054 44.6426 33.662 45.2334 34.536 45.2334C35.2147 45.2334 35.62 44.8965 35.747 44.623L35.7665 44.584L36.787 44.5791L36.7772 44.623C36.6014 45.3213 35.869 46.1025 34.5116 46.1025ZM34.4628 41.4639C33.7401 41.4639 33.1932 41.957 33.1005 42.8701H35.7958C35.7128 41.9229 35.1805 41.4639 34.4628 41.4639ZM39.8673 46.0342C38.7003 46.0342 38.2218 45.624 38.2218 44.6035V41.5322H37.3917V40.6973H38.2218V39.3594H39.3009V40.6973H40.4386V41.5322H39.3009V44.3496C39.3009 44.9209 39.5157 45.1553 40.0382 45.1553C40.1993 45.1553 40.2921 45.1504 40.4386 45.1357V45.9805C40.2677 46.0098 40.0724 46.0342 39.8673 46.0342ZM43.6019 46.1025C42.0492 46.1025 41.1117 45.043 41.1117 43.3633V43.3584C41.1117 41.7031 42.0687 40.5947 43.5482 40.5947C45.0277 40.5947 45.9359 41.6641 45.9359 43.2559V43.627H42.1761C42.1957 44.6426 42.7523 45.2334 43.6263 45.2334C44.305 45.2334 44.7103 44.8965 44.8373 44.623L44.8568 44.584L45.8773 44.5791L45.8675 44.623C45.6918 45.3213 44.9593 46.1025 43.6019 46.1025ZM43.5531 41.4639C42.8304 41.4639 42.2836 41.957 42.1908 42.8701H44.8861C44.8031 41.9229 44.2709 41.4639 43.5531 41.4639ZM48.4107 46.0879C47.4 46.0879 46.6529 45.4727 46.6529 44.5107V44.501C46.6529 43.5537 47.3658 43.002 48.6305 42.9238L50.066 42.8408V42.3721C50.066 41.791 49.6998 41.4688 48.982 41.4688C48.3961 41.4688 48.0104 41.6836 47.8834 42.0596L47.8785 42.0791H46.858L46.8629 42.0449C46.9898 41.1758 47.8248 40.5947 49.0309 40.5947C50.3639 40.5947 51.1158 41.2588 51.1158 42.3721V46H50.066V45.248H49.983C49.6705 45.7852 49.1139 46.0879 48.4107 46.0879ZM47.7076 44.4668C47.7076 44.9551 48.1227 45.2432 48.6939 45.2432C49.485 45.2432 50.066 44.7256 50.066 44.042V43.5879L48.7721 43.6709C48.0396 43.7148 47.7076 43.9785 47.7076 44.457V44.4668ZM52.37 46V40.6973H53.4295V41.5127H53.5077C53.742 40.9316 54.2596 40.5947 54.953 40.5947C55.6756 40.5947 56.1883 40.9707 56.4227 41.542H56.5057C56.7743 40.9707 57.3846 40.5947 58.1219 40.5947C59.1912 40.5947 59.8162 41.2393 59.8162 42.3428V46H58.7616V42.5967C58.7616 41.8643 58.4295 41.5029 57.7362 41.5029C57.0623 41.5029 56.618 42.0059 56.618 42.6455V46H55.5633V42.4893C55.5633 41.8838 55.1678 41.5029 54.5428 41.5029C53.9032 41.5029 53.4295 42.0498 53.4295 42.7432V46H52.37Z" fill="#3C3C43" fill-opacity="0.6"/>
</svg>
