<svg width="75" height="50" viewBox="0 0 75 50" fill="none" xmlns="http://www.w3.org/2000/svg">
<path d="M46.25 13H29.75C29.3522 13 28.9706 13.158 28.6893 13.4393C28.408 13.7206 28.25 14.1022 28.25 14.5V29.5C28.2483 29.786 28.3292 30.0665 28.483 30.3076C28.6369 30.5488 28.8571 30.7404 29.1172 30.8594C29.3154 30.9517 29.5313 30.9997 29.75 31C30.1021 30.9992 30.4426 30.8736 30.7109 30.6456C30.7154 30.6427 30.7195 30.6392 30.7231 30.6353L33.7344 28H46.25C46.6478 28 47.0294 27.842 47.3107 27.5607C47.592 27.2794 47.75 26.8978 47.75 26.5V14.5C47.75 14.1022 47.592 13.7206 47.3107 13.4393C47.0294 13.158 46.6478 13 46.25 13ZM46.25 26.5H33.7344C33.3811 26.4998 33.0392 26.6243 32.7687 26.8516L32.7575 26.8619L29.75 29.5V14.5H46.25V26.5Z" fill="#767579"/>
<path d="M31.2526 46.1709C29.2946 46.1709 28.0739 44.7549 28.0739 42.4844V42.4746C28.0739 40.1992 29.2897 38.7832 31.2477 38.7832C32.8004 38.7832 33.9918 39.7646 34.1774 41.166L34.1725 41.1904H33.0885V41.1758C32.8834 40.3115 32.1754 39.75 31.2477 39.75C29.983 39.75 29.192 40.7998 29.192 42.4746V42.4844C29.192 44.1543 29.983 45.2041 31.2526 45.2041C32.1852 45.2041 32.8834 44.7061 33.0836 43.9102L33.0934 43.8906H34.1774V43.9199C33.9723 45.2725 32.8248 46.1709 31.2526 46.1709ZM35.3046 46V38.6172H36.3641V41.5029H36.4423C36.7011 40.9365 37.2089 40.5947 37.9804 40.5947C39.1669 40.5947 39.8212 41.3027 39.8212 42.5674V46H38.7665V42.8164C38.7665 41.9375 38.4003 41.5029 37.6239 41.5029C36.8475 41.5029 36.3641 42.0352 36.3641 42.8896V46H35.3046ZM42.5157 46.0879C41.505 46.0879 40.7579 45.4727 40.7579 44.5107V44.501C40.7579 43.5537 41.4708 43.002 42.7355 42.9238L44.171 42.8408V42.3721C44.171 41.791 43.8048 41.4688 43.087 41.4688C42.5011 41.4688 42.1154 41.6836 41.9884 42.0596L41.9835 42.0791H40.963L40.9679 42.0449C41.0948 41.1758 41.9298 40.5947 43.1359 40.5947C44.4689 40.5947 45.2208 41.2588 45.2208 42.3721V46H44.171V45.248H44.088C43.7755 45.7852 43.2189 46.0879 42.5157 46.0879ZM41.8126 44.4668C41.8126 44.9551 42.2277 45.2432 42.7989 45.2432C43.59 45.2432 44.171 44.7256 44.171 44.042V43.5879L42.8771 43.6709C42.1446 43.7148 41.8126 43.9785 41.8126 44.457V44.4668ZM48.4769 46.0342C47.3099 46.0342 46.8314 45.624 46.8314 44.6035V41.5322H46.0013V40.6973H46.8314V39.3594H47.9105V40.6973H49.0482V41.5322H47.9105V44.3496C47.9105 44.9209 48.1254 45.1553 48.6478 45.1553C48.8089 45.1553 48.9017 45.1504 49.0482 45.1357V45.9805C48.8773 46.0098 48.682 46.0342 48.4769 46.0342Z" fill="#3C3C43" fill-opacity="0.6"/>
</svg>
