<svg width="75" height="49" viewBox="0 0 75 49" fill="none" xmlns="http://www.w3.org/2000/svg">
<path d="M25.0787 45V37.9541H26.1725V40.9326H29.7907V37.9541H30.8795V45H29.7907V41.8799H26.1725V45H25.0787ZM34.5311 45.1025C32.9735 45.1025 32.0214 44.0625 32.0214 42.3535V42.3438C32.0214 40.6396 32.9784 39.5947 34.5311 39.5947C36.079 39.5947 37.036 40.6348 37.036 42.3438V42.3535C37.036 44.0625 36.0839 45.1025 34.5311 45.1025ZM34.5311 44.2188C35.4393 44.2188 35.9569 43.5254 35.9569 42.3535V42.3438C35.9569 41.167 35.4393 40.4785 34.5311 40.4785C33.618 40.4785 33.1054 41.167 33.1054 42.3438V42.3535C33.1054 43.5303 33.618 44.2188 34.5311 44.2188ZM38.0607 45V39.6973H39.1202V40.5127H39.1984C39.4327 39.9316 39.9503 39.5947 40.6437 39.5947C41.3663 39.5947 41.879 39.9707 42.1134 40.542H42.1964C42.465 39.9707 43.0753 39.5947 43.8126 39.5947C44.882 39.5947 45.507 40.2393 45.507 41.3428V45H44.4523V41.5967C44.4523 40.8643 44.1202 40.5029 43.4269 40.5029C42.753 40.5029 42.3087 41.0059 42.3087 41.6455V45H41.254V41.4893C41.254 40.8838 40.8585 40.5029 40.2335 40.5029C39.5939 40.5029 39.1202 41.0498 39.1202 41.7432V45H38.0607ZM48.973 45.1025C47.4203 45.1025 46.4828 44.043 46.4828 42.3633V42.3584C46.4828 40.7031 47.4398 39.5947 48.9193 39.5947C50.3988 39.5947 51.307 40.6641 51.307 42.2559V42.627H47.5472C47.5668 43.6426 48.1234 44.2334 48.9974 44.2334C49.6761 44.2334 50.0814 43.8965 50.2084 43.623L50.2279 43.584L51.2484 43.5791L51.2386 43.623C51.0629 44.3213 50.3304 45.1025 48.973 45.1025ZM48.9242 40.4639C48.2015 40.4639 47.6546 40.957 47.5619 41.8701H50.2572C50.1742 40.9229 49.642 40.4639 48.9242 40.4639Z" fill="#3C3C43" fill-opacity="0.6"/>
<path d="M46.0123 15.9998C46.0123 15.7346 45.9069 15.4802 45.7194 15.2927C45.5319 15.1051 45.2775 14.9998 45.0123 14.9998C44.7471 14.9998 44.4927 15.1051 44.3052 15.2927C44.1176 15.4802 44.0123 15.7346 44.0123 15.9998H46.0123ZM32.0123 15.9998C32.0123 15.7346 31.9069 15.4802 31.7194 15.2927C31.5319 15.1051 31.2775 14.9998 31.0123 14.9998C30.7471 14.9998 30.4927 15.1051 30.3052 15.2927C30.1176 15.4802 30.0123 15.7346 30.0123 15.9998H32.0123ZM46.3053 18.7068C46.4939 18.8889 46.7465 18.9897 47.0087 18.9875C47.2709 18.9852 47.5217 18.88 47.7071 18.6946C47.8925 18.5092 47.9977 18.2584 48 17.9962C48.0022 17.734 47.9014 17.4814 47.7193 17.2928L46.3053 18.7068ZM38.0123 8.99979L38.7193 8.29279C38.5318 8.10532 38.2775 8 38.0123 8C37.7471 8 37.4928 8.10532 37.3053 8.29279L38.0123 8.99979ZM28.3053 17.2928C28.2098 17.385 28.1336 17.4954 28.0812 17.6174C28.0288 17.7394 28.0012 17.8706 28 18.0034C27.9989 18.1362 28.0242 18.2678 28.0745 18.3907C28.1247 18.5136 28.199 18.6253 28.2929 18.7192C28.3868 18.8131 28.4984 18.8873 28.6213 18.9376C28.7442 18.9879 28.8759 19.0132 29.0087 19.012C29.1415 19.0109 29.2727 18.9833 29.3947 18.9309C29.5167 18.8785 29.627 18.8023 29.7193 18.7068L28.3053 17.2928ZM33.0123 27.9998H43.0123V25.9998H33.0123V27.9998ZM46.0123 24.9998V15.9998H44.0123V24.9998H46.0123ZM32.0123 24.9998V15.9998H30.0123V24.9998H32.0123ZM47.7193 17.2928L38.7193 8.29279L37.3053 9.70679L46.3053 18.7068L47.7193 17.2928ZM37.3053 8.29279L28.3053 17.2928L29.7193 18.7068L38.7193 9.70679L37.3053 8.29279ZM43.0123 27.9998C43.8079 27.9998 44.571 27.6837 45.1336 27.1211C45.6962 26.5585 46.0123 25.7954 46.0123 24.9998H44.0123C44.0123 25.265 43.9069 25.5194 43.7194 25.7069C43.5319 25.8944 43.2775 25.9998 43.0123 25.9998V27.9998ZM33.0123 25.9998C32.7471 25.9998 32.4927 25.8944 32.3052 25.7069C32.1176 25.5194 32.0123 25.265 32.0123 24.9998H30.0123C30.0123 25.7954 30.3284 26.5585 30.891 27.1211C31.4536 27.6837 32.2166 27.9998 33.0123 27.9998V25.9998Z" fill="#767579"/>
</svg>
