<svg width="75" height="50" viewBox="0 0 75 50" fill="none" xmlns="http://www.w3.org/2000/svg">
<path d="M46.2894 12.2125C45.353 11.2762 44.083 10.7501 42.7588 10.7501C41.4345 10.7501 40.1645 11.2762 39.2281 12.2125L29.7125 21.7272C28.7957 22.6676 28.2863 23.9313 28.2947 25.2446C28.3031 26.5579 28.8286 27.8151 29.7573 28.7437C30.686 29.6723 31.9432 30.1976 33.2565 30.2058C34.5698 30.214 35.8335 29.7044 36.7738 28.7875L46.2903 19.2728C47.2251 18.3358 47.75 17.0661 47.7498 15.7425C47.7497 14.4189 47.2244 13.1494 46.2894 12.2125ZM35.7134 27.7272C35.0584 28.3824 34.1699 28.7505 33.2435 28.7506C32.317 28.7507 31.4285 28.3827 30.7733 27.7277C30.1181 27.0726 29.75 26.1842 29.7499 25.2577C29.7498 24.3312 30.1178 23.4427 30.7728 22.7875L35 18.5603L39.9406 23.5L35.7134 27.7272ZM45.2291 18.2125L41 22.4397L36.0613 17.5L40.2894 13.2728C40.947 12.6304 41.8314 12.2731 42.7508 12.2785C43.6701 12.2839 44.5503 12.6514 45.2004 13.3015C45.8505 13.9516 46.2181 14.8318 46.2234 15.7511C46.2288 16.6705 45.8715 17.5549 45.2291 18.2125ZM43.7825 16.2194C43.8522 16.2891 43.9076 16.3718 43.9453 16.4628C43.983 16.5539 44.0025 16.6515 44.0025 16.75C44.0025 16.8486 43.983 16.9462 43.9453 17.0372C43.9076 17.1283 43.8522 17.211 43.7825 17.2807L41.5325 19.5307C41.4628 19.6003 41.3801 19.6555 41.2891 19.6931C41.1981 19.7308 41.1005 19.7502 41.002 19.7501C40.9035 19.7501 40.806 19.7306 40.715 19.6929C40.624 19.6552 40.5413 19.5999 40.4717 19.5302C40.4021 19.4605 40.3469 19.3778 40.3092 19.2868C40.2716 19.1957 40.2522 19.0982 40.2523 18.9997C40.2523 18.9012 40.2717 18.8037 40.3095 18.7127C40.3472 18.6217 40.4025 18.539 40.4722 18.4694L42.7222 16.2194C42.8628 16.0789 43.0535 15.9999 43.2523 15.9999C43.4512 15.9999 43.6419 16.0789 43.7825 16.2194Z" fill="#767579"/>
<path d="M26.07 46V38.9541H27.3297L29.5758 44.5742H29.6539L31.9 38.9541H33.1598V46H32.1637V40.8291H32.0905L30.0202 46H29.2096L27.1442 40.8291H27.0661V46H26.07ZM36.7919 46.1025C35.2391 46.1025 34.3016 45.043 34.3016 43.3633V43.3584C34.3016 41.7031 35.2587 40.5947 36.7382 40.5947C38.2177 40.5947 39.1259 41.6641 39.1259 43.2559V43.627H35.3661C35.3856 44.6426 35.9423 45.2334 36.8163 45.2334C37.495 45.2334 37.9003 44.8965 38.0272 44.623L38.0468 44.584L39.0673 44.5791L39.0575 44.623C38.8817 45.3213 38.1493 46.1025 36.7919 46.1025ZM36.743 41.4639C36.0204 41.4639 35.4735 41.957 35.3807 42.8701H38.0761C37.993 41.9229 37.4608 41.4639 36.743 41.4639ZM42.0792 46.0879C40.7462 46.0879 39.882 45.0186 39.882 43.3535V43.3438C39.882 41.6641 40.7316 40.6045 42.0792 40.6045C42.8068 40.6045 43.4269 40.9658 43.7101 41.5371H43.7931V38.6172H44.8478V46H43.7931V45.165H43.7101C43.4025 45.7461 42.8214 46.0879 42.0792 46.0879ZM42.382 45.1846C43.2657 45.1846 43.8077 44.4863 43.8077 43.3535V43.3438C43.8077 42.2109 43.2609 41.5127 42.382 41.5127C41.4933 41.5127 40.9611 42.2061 40.9611 43.3438V43.3535C40.9611 44.4912 41.4933 45.1846 42.382 45.1846ZM48.1136 46.1025C46.8343 46.1025 46.0238 45.502 45.9212 44.6133V44.6084H46.9808L46.9857 44.6133C47.1175 45.0137 47.5033 45.2822 48.1332 45.2822C48.7875 45.2822 49.2416 44.9844 49.2416 44.5498V44.54C49.2416 44.208 48.9925 43.9834 48.3773 43.8418L47.5326 43.6465C46.5316 43.417 46.0677 42.9629 46.0677 42.1865V42.1816C46.0677 41.2588 46.9271 40.5947 48.1283 40.5947C49.3392 40.5947 50.1156 41.2002 50.2084 42.0645V42.0693H49.1976V42.0596C49.0951 41.6885 48.7191 41.4102 48.1234 41.4102C47.5423 41.4102 47.1224 41.6982 47.1224 42.123V42.1328C47.1224 42.4648 47.3666 42.6699 47.9623 42.8115L48.8021 43.002C49.8226 43.2412 50.3109 43.6758 50.3109 44.4424V44.4521C50.3109 45.4336 49.3734 46.1025 48.1136 46.1025Z" fill="#3C3C43" fill-opacity="0.6"/>
</svg>
