<svg width="75" height="50" viewBox="0 0 75 50" fill="none" xmlns="http://www.w3.org/2000/svg">
<path d="M49.25 26.5H46.25V23.5H44.75V26.5H41.75V28H44.75V31H46.25V28H49.25V26.5Z" fill="#767579"/>
<path d="M44.75 12.25H42.5V11.5C42.4988 11.1025 42.3404 10.7217 42.0593 10.4407C41.7783 10.1596 41.3975 10.0012 41 10H35C34.6025 10.0012 34.2217 10.1596 33.9407 10.4407C33.6596 10.7217 33.5012 11.1025 33.5 11.5V12.25H31.25C30.8525 12.2512 30.4717 12.4096 30.1907 12.6907C29.9096 12.9717 29.7512 13.3525 29.75 13.75V29.5C29.7512 29.8975 29.9096 30.2783 30.1907 30.5593C30.4717 30.8404 30.8525 30.9988 31.25 31H38.75V29.5H31.25V13.75H33.5V16H42.5V13.75H44.75V20.5H46.25V13.75C46.2488 13.3525 46.0904 12.9717 45.8093 12.6907C45.5283 12.4096 45.1475 12.2512 44.75 12.25ZM41 14.5H35V11.5H41V14.5Z" fill="#767579"/>
<path d="M27.9937 46V39.8965H25.7769V38.9541H31.2993V39.8965H29.0874V46H27.9937ZM32.739 46.0879C31.7283 46.0879 30.9812 45.4727 30.9812 44.5107V44.501C30.9812 43.5537 31.6941 43.002 32.9587 42.9238L34.3943 42.8408V42.3721C34.3943 41.791 34.0281 41.4688 33.3103 41.4688C32.7244 41.4688 32.3386 41.6836 32.2117 42.0596L32.2068 42.0791H31.1863L31.1912 42.0449C31.3181 41.1758 32.1531 40.5947 33.3591 40.5947C34.6921 40.5947 35.4441 41.2588 35.4441 42.3721V46H34.3943V45.248H34.3113C33.9988 45.7852 33.4421 46.0879 32.739 46.0879ZM32.0359 44.4668C32.0359 44.9551 32.4509 45.2432 33.0222 45.2432C33.8132 45.2432 34.3943 44.7256 34.3943 44.042V43.5879L33.1004 43.6709C32.3679 43.7148 32.0359 43.9785 32.0359 44.457V44.4668ZM38.627 46.1025C37.3477 46.1025 36.5371 45.502 36.4346 44.6133V44.6084H37.4941L37.499 44.6133C37.6309 45.0137 38.0166 45.2822 38.6465 45.2822C39.3008 45.2822 39.7549 44.9844 39.7549 44.5498V44.54C39.7549 44.208 39.5059 43.9834 38.8906 43.8418L38.0459 43.6465C37.0449 43.417 36.5811 42.9629 36.5811 42.1865V42.1816C36.5811 41.2588 37.4404 40.5947 38.6416 40.5947C39.8525 40.5947 40.6289 41.2002 40.7217 42.0645V42.0693H39.7109V42.0596C39.6084 41.6885 39.2324 41.4102 38.6367 41.4102C38.0557 41.4102 37.6357 41.6982 37.6357 42.123V42.1328C37.6357 42.4648 37.8799 42.6699 38.4756 42.8115L39.3154 43.002C40.3359 43.2412 40.8242 43.6758 40.8242 44.4424V44.4521C40.8242 45.4336 39.8867 46.1025 38.627 46.1025ZM41.8977 46V38.6172H42.9573V42.9336H43.0354L45.1399 40.6973H46.3801L44.1682 42.9336L46.5266 46H45.2375L43.4114 43.6172L42.9573 44.0713V46H41.8977ZM48.977 46.1025C47.6977 46.1025 46.8872 45.502 46.7846 44.6133V44.6084H47.8442L47.8491 44.6133C47.9809 45.0137 48.3667 45.2822 48.9966 45.2822C49.6509 45.2822 50.105 44.9844 50.105 44.5498V44.54C50.105 44.208 49.8559 43.9834 49.2407 43.8418L48.396 43.6465C47.395 43.417 46.9311 42.9629 46.9311 42.1865V42.1816C46.9311 41.2588 47.7905 40.5947 48.9917 40.5947C50.2026 40.5947 50.979 41.2002 51.0718 42.0645V42.0693H50.061V42.0596C49.9585 41.6885 49.5825 41.4102 48.9868 41.4102C48.4057 41.4102 47.9858 41.6982 47.9858 42.123V42.1328C47.9858 42.4648 48.23 42.6699 48.8257 42.8115L49.6655 43.002C50.686 43.2412 51.1743 43.6758 51.1743 44.4424V44.4521C51.1743 45.4336 50.2368 46.1025 48.977 46.1025Z" fill="#3C3C43" fill-opacity="0.6"/>
</svg>
